<svg xmlns="http://www.w3.org/2000/svg" viewBox="0 0 64 64" fill="none">
  <defs>
    <linearGradient id="g" x1="10" y1="8" x2="54" y2="56" gradientUnits="userSpaceOnUse">
      <stop stop-color="#2563eb"/>
      <stop offset="1" stop-color="#06b6d4"/>
    </linearGradient>
  </defs>
  <circle cx="32" cy="32" r="28" fill="url(#g)"/>
  <path
    d="M32 14c.9 0 1.6.7 1.6 1.6v9.2h7.1c.9 0 1.6.7 1.6 1.6s-.7 1.6-1.6 1.6h-7.1v16.7c0 1.5 1.2 2.7 2.7 2.7 2.2 0 4.3-1.3 5.3-3.3l.6-1.2c.4-.8 1.4-1.1 2.2-.7s1.1 1.4.7 2.2l-.6 1.2c-1.6 3.2-5 5.2-8.2 5.2-2.4 0-4.6-1.1-6-2.9-1.4 1.8-3.6 2.9-6 2.9-3.2 0-6.6-2-8.2-5.2l-.6-1.2c-.4-.8-.1-1.8.7-2.2.8-.4 1.8-.1 2.2.7l.6 1.2c1 2 3.1 3.3 5.3 3.3 1.5 0 2.7-1.2 2.7-2.7V29.6h-7.1c-.9 0-1.6-.7-1.6-1.6s.7-1.6 1.6-1.6h7.1v-9.2c0-.9.7-1.6 1.6-1.6Z"
    fill="#fff"
    opacity="0.95"
  />
</svg>

